<?xml version="1.0" encoding="iso-8859-1"?>
<!-- Uploaded to: SVG Repo, www.svgrepo.com, Generator: SVG Repo Mixer Tools -->
<!DOCTYPE svg PUBLIC "-//W3C//DTD SVG 1.1//EN" "http://www.w3.org/Graphics/SVG/1.1/DTD/svg11.dtd">
<svg fill="#ffffff" version="1.1" id="Capa_1" xmlns="http://www.w3.org/2000/svg"
	xmlns:xlink="http://www.w3.org/1999/xlink"
	width="800px" height="800px" viewBox="0 0 31.998 31.998"
	xml:space="preserve">
<g>
	<path d="M25.262,10.757c-2.213,0-4.164,1.088-5.394,2.741c-0.616-1.326-1.22-3.132-1.22-5.142c0-2.469-2.002-4.129-4.982-4.129
		c-1.527,0-3.107,0.462-4.193,1.345c-1.33-1.016-3.258-1.586-4.825-1.586c-1.246,0-2.331,0.337-3.136,0.974
		C0.822,5.506,0,6.538,0,8.358c0,0.819,0.664,1.481,1.482,1.481s1.482-0.662,1.482-1.481c0-0.722,0.203-1.23,1.195-1.375
		c1.762-0.264,3.777,0.883,3.929,1.375v12.104c0,0.818,0.664,1.481,1.482,1.481c0.818,0,1.481-0.663,1.481-1.481V8.358
		c0-0.522,1.206-1.165,2.614-1.165c0.649,0,1.234,0.142,1.604,0.385c0.294,0.195,0.413,0.423,0.413,0.78
		c0,4.285,2.095,7.705,2.873,8.828c-0.006,0.104-0.031,0.204-0.031,0.31c0,1.057,0.266,2.04,0.697,2.93
		c-0.908,1.381-3.453,4.526-7.861,4.621c-0.818,0.019-1.468,0.693-1.451,1.515c0.018,0.808,0.678,1.45,1.482,1.45
		c0.01,0,0.021,0,0.031,0c5.055-0.107,8.215-3.201,9.738-5.205c1.141,0.882,2.551,1.43,4.1,1.43c3.717,0,6.738-3.021,6.738-6.736
		C31.998,13.782,28.979,10.757,25.262,10.757z M25.262,21.271c-2.08,0-3.773-1.693-3.773-3.774c0-2.08,1.693-3.773,3.773-3.773
		c2.082,0,3.775,1.693,3.775,3.773C29.037,19.577,27.344,21.271,25.262,21.271z"/>
</g>
</svg>